<?xml version="1.0" encoding="utf-8"?>
<!-- Generator: Adobe Illustrator 25.4.1, SVG Export Plug-In . SVG Version: 6.00 Build 0)  -->
<svg version="1.1" id="katman_1" xmlns="http://www.w3.org/2000/svg" xmlns:xlink="http://www.w3.org/1999/xlink" x="0px" y="0px"
	 viewBox="0 0 800 334" style="enable-background:new 0 0 800 334;" xml:space="preserve">
<style type="text/css">
	.st0{fill-rule:evenodd;clip-rule:evenodd;}
	.st1{fill-rule:evenodd;clip-rule:evenodd;fill:#43CCF7;}
	.st2{fill-rule:evenodd;clip-rule:evenodd;fill:#FFFFFF;}
</style>
<path class="st0" d="M779,254.4h-9.9l-25.5-31.2h-22.1v31.2h-7.7v-70.3h7.8v31.2h22.1l25.4-31.3h9.9l-28.7,35.2L779,254.4z
	 M670.1,131.8h-7.9v-13.3l-13.3-24.8h9.1l8.3,16.8l8.3-16.8h8.9l-13.2,24.8V131.8z M629.6,121.4c0,3.3-1.1,5.7-3.3,7.6
	c-2.2,1.9-5.4,2.8-9.5,2.8h-16.8V93.7h16.5c4,0,7,0.8,9.1,2.5c2.1,1.7,3.2,4,3.2,7.1c0,2.3-0.6,4.3-1.9,5.9c-1.3,1.6-3,2.5-5.1,2.9
	c2.5,0.5,4.4,1.6,5.9,3.3S629.6,119.1,629.6,121.4z M619.4,100.9c-1-0.9-2.5-1.2-4.6-1.2h-7v9.9h7c1.9,0,3.5-0.5,4.4-1.2
	c1-0.8,1.6-2,1.6-3.7C620.8,103.1,620.3,101.9,619.4,100.9z M619.9,116.5c-1.1-0.9-2.7-1.4-4.8-1.4h-7.3v10.5h7.5
	c2.1,0,3.7-0.5,4.8-1.4c1.1-0.9,1.6-2.2,1.6-3.9C621.6,118.6,621,117.4,619.9,116.5z M616.9,191.9h-30.3v62.4h-7.7v-62.4h-30.4v-7.9
	h68.4V191.9z M539.3,129.3c-3,1.6-6.8,2.5-11,2.5h-14V93.7h14c4.3,0,7.9,0.8,11,2.3c3,1.6,5.4,3.7,7,6.7c1.6,2.8,2.4,6.2,2.4,10.1
	c0,3.7-0.8,7-2.4,9.9C544.7,125.6,542.3,127.8,539.3,129.3z M537.4,103.4c-2.4-2.2-5.6-3.3-9.9-3.3h-5.4v24.7h5.4
	c4.3,0.2,7.5-0.9,9.9-3.1c2.4-2.2,3.5-5.1,3.5-9.2C540.9,108.7,539.8,105.6,537.4,103.4z M506.7,191.2c0.2,0.7,0.5,1.5,0.6,2.2
	c0.1,0.9,0.2,1.6,0.2,2.4v20.6c0,0.7-0.1,1.5-0.2,2.2c-0.1,0.7-0.4,1.5-0.6,2.2c-0.2,0.7-0.6,1.5-1,2.1c-0.5,0.6-0.9,1.2-1.5,1.7
	c-0.5,0.5-1.1,1-1.7,1.5c-0.6,0.4-1.2,0.7-2,1c-0.7,0.2-1.5,0.5-2.2,0.7c-0.7,0.1-1.5,0.2-2.2,0.2h-10.4l21.4,26.2h-10.3l-21.3-26.2
	h-25c-1.2,0-2.5-0.1-3.7-0.4v26.6h-7.7v-70.2h57.1c0.7,0,1.5,0.1,2.2,0.2c0.7,0.1,1.5,0.4,2.2,0.6c0.7,0.2,1.3,0.6,2,1.1
	c1.2,0.9,2.2,2,3.1,3.2C506.1,189.8,506.4,190.5,506.7,191.2z M499.8,195.9c0-1-0.4-2-1-2.7c-0.6-0.7-1.6-1.2-2.6-1.2h-45.7
	c-0.5,0-1,0.1-1.5,0.2c-0.5,0.1-0.9,0.5-1.1,0.9c-0.4,0.4-0.6,0.7-0.7,1.2c-0.1,0.5-0.2,1-0.2,1.5v20.6c0,1,0.4,2,1.2,2.7
	c0.4,0.7,1.3,1.2,2.3,1.2h45.7c0.5,0,1-0.1,1.5-0.2c0.5-0.1,0.9-0.4,1.1-0.9c0.4-0.4,0.6-0.7,0.7-1.2c0.1-0.5,0.2-1,0.2-1.5V195.9z
	 M468.6,93.7H492v6h-15.6v9.9h13.8v5.7h-13.8v10.2H492v6h-23.4V93.7z M436.8,131.8h-7.8V99.7h-10.8v-6h29.4v6h-10.8V131.8z
	 M332.4,183.9h62.4v7.9H340v23.3h44v8h-44v23.3h54.8v7.9h-62.4V183.9z M389.5,93.7h7.8v38.2h-7.8V93.7z M357.6,129.3
	c-3,1.6-6.8,2.5-11,2.5h-14V93.7h14c4.3,0,7.9,0.8,11,2.3c3,1.6,5.4,3.7,7,6.7c1.6,2.8,2.4,6.2,2.4,10.1c0.2,3.7-0.6,7-2.4,9.9
	C363,125.6,360.6,127.8,357.6,129.3z M355.7,103.4c-2.4-2.2-5.6-3.3-9.9-3.3h-5.4v24.7h5.4c4.3,0.2,7.5-0.9,9.9-3.1
	c2.4-2.2,3.5-5.1,3.5-9.2C359.2,108.7,358,105.6,355.7,103.4z M301.6,130.4c-2.4,1.2-5.1,1.9-8.1,1.9c-4.8,0-8.4-1.4-11.3-4.2
	c-2.9-2.8-4.3-6.8-4.3-12.1V93.7h7.8V116c0,2.9,0.6,5.3,2.1,6.7c1.3,1.6,3.3,2.2,5.9,2.2s4.4-0.8,5.7-2.2c1.3-1.6,2.1-3.7,2.1-6.7
	V93.7h7.8V116c0,3.6-0.6,6.5-2.1,9C305.9,127.5,304,129.2,301.6,130.4z M246.4,124.1h-15.7l-2.7,7.8h-8.3l14.5-37.7h8.9l14.3,37.7
	h-8.3L246.4,124.1z M238.6,102.2l-5.7,16.1h11.4L238.6,102.2z M220.5,191.7c0.2-0.7,0.6-1.5,1-2.1c0.4-0.6,0.9-1.2,1.5-1.7
	c0.5-0.5,1.1-1,1.7-1.5c0.6-0.4,1.2-0.7,2-1c0.7-0.2,1.5-0.5,2.2-0.6c0.7-0.1,1.5-0.2,2.2-0.2h56.9v7.2h-56.9c-0.5,0-1,0.1-1.5,0.2
	c-0.5,0.1-0.9,0.5-1.1,0.9c-0.4,0.4-0.6,0.7-0.7,1.2c-0.1,0.5-0.2,1-0.2,1.5v46.9c0,0.5,0.1,1,0.2,1.5c0.1,0.5,0.4,0.9,0.7,1.2
	c0.4,0.4,0.7,0.6,1.1,0.9c0.5,0.1,1,0.2,1.5,0.2h56.9v7.9h-56.9c-0.7,0-1.5-0.1-2.2-0.2c-0.7-0.1-1.5-0.4-2.2-0.6
	c-0.7-0.2-1.3-0.6-2-1c-0.6-0.5-1.1-1-1.7-1.5c-1.1-1.1-1.8-2.3-2.5-3.7c-0.2-0.7-0.5-1.5-0.6-2.2c-0.1-0.7-0.2-1.5-0.2-2.2v-46.8
	c0-0.7,0.1-1.5,0.2-2.2C220,193.2,220.3,192.5,220.5,191.7z M156.9,214.9c-11.5,17-28.3,33.7-52.1,47l-4.5,2.6
	c-0.3,0.1-0.6,0.2-0.9,0.3c-1,0.3-2.1,0.2-3-0.4c0,0,0,0,0,0l-4.2-2.4c-24-13.2-40.6-29.9-52.1-47c-5-7.5-9.3-15.3-12.8-23.5
	c-3.5-8.2-6.4-16.7-8.4-25.4c-3.1-12.8-4.6-25.9-4.6-39.1c0-6.1,0.4-12.2,1.1-18.2l1-6.1c0.1-0.5,0.2-1,0.5-1.5c0.2-0.4,0.6-0.7,1-1
	c0.1-0.1,0.3-0.2,0.5-0.3c0,0,0.1-0.1,0.1-0.1c0.5-0.2,1-0.4,1.5-0.4c0.5-0.1,1-0.1,1.5,0.1c0.5,0.1,1,0.4,1.3,0.7
	c0.2,0.4,0.6,0.9,0.9,1.2l32.8,66.2h85.5c0.3,0,0.5,0,0.8,0.1l0.4-0.8l30.6-65.6c0.1-0.5,0.5-0.9,0.9-1.2c0.4-0.4,0.9-0.6,1.3-0.7
	c0.5-0.1,1-0.1,1.5-0.1c0.6,0,1.1,0.1,1.5,0.4c0,0,0.1,0.1,0.1,0.1c0.2,0.1,0.3,0.2,0.5,0.3c0.4,0.2,0.7,0.6,1,1
	c0.2,0.5,0.4,1,0.5,1.5l1,6.1c0.7,6.1,1.1,12.2,1.1,18.3c0,13.2-1.5,26.3-4.5,39.1C174.1,183.4,166.9,200,156.9,214.9z M21.8,115.4
	c-0.3,3.9-0.5,7.7-0.5,11.5c0,12.6,1.5,25,4.4,37.3c3.9,16.6,10.6,32.3,20.2,46.4c10,14.8,24,29.4,43.8,41.5L21.8,115.4z
	 M59.9,175.3L98.4,253l40.1-77.7H59.9z M174.9,116.4l-25.2,54.1l-0.1,0.1l-41.9,80.8c19.4-12.1,33.2-26.4,43-40.9
	c9.4-14.2,16.3-29.9,20.2-46.4c2.9-12.2,4.4-24.7,4.4-37.3C175.3,123.4,175.1,119.9,174.9,116.4z M158.6,98.9
	c-0.4,0.5-0.7,0.7-1.2,1c-0.5,0.2-1,0.4-1.5,0.4c-0.5,0-1,0-1.5-0.1L98.5,82.6L43.7,99.8c-0.5,0.1-1,0.1-1.3,0.1
	c-0.6,0-1.1-0.1-1.5-0.4c-0.5-0.2-1-0.6-1.2-1c-0.2-0.4-0.5-0.9-0.6-1.3c-0.1-0.5-0.1-1-0.1-1.5s0.1-1,0.4-1.5
	c0.1-0.5,0.5-0.9,0.9-1.2c0.5-0.2,0.9-0.5,1.3-0.6l55.9-17.7c0.7-0.2,1.5-0.2,2.2,0l57.1,18.1c0.5,0,1,0.2,1.3,0.6
	c0.4,0.4,0.6,0.7,0.9,1.2c0.2,0.5,0.4,1,0.4,1.5s0,1-0.1,1.5C159.2,98.1,158.9,98.6,158.6,98.9z M666.2,254.3h-7.7v-70.3h7.7V254.3z
	"/>
<path class="st1" d="M769.4,126.8c-9.9,18.3-26.3,28.9-26.3,28.9s-16.4-10.6-26.3-28.9c-8.4-15.6-10.5-39.5-10.5-39.5s10.3-3,20-7.9
	C734.8,75.2,742,69,742,69s7.2,6.2,15.8,10.5c9.8,4.9,22.1,7.9,22.1,7.9S777.8,111.2,769.4,126.8z"/>
<path class="st2" d="M728.6,104.9l10,12.5l22.5-25l7.5,7.5l-30,32.5l-17.5-20L728.6,104.9z"/>
</svg>
